<?xml version="1.0" encoding="UTF-8"?>
<svg version="1.1" xmlns="http://www.w3.org/2000/svg" width="1280" height="670">
<path d="M0 0 C422.4 0 844.8 0 1280 0 C1280 221.1 1280 442.2 1280 670 C857.6 670 435.2 670 0 670 C0 448.9 0 227.8 0 0 Z " fill="#F6F6F6" transform="translate(0,0)"/>
<path d="M0 0 C2.04189227 0.81593687 4.09961253 1.48757871 6.1953125 2.15234375 C31.46895231 10.53346485 51.99630078 25.21517956 64.21875 49.28515625 C65.21099985 51.42632697 66.10380133 53.57299497 66.9453125 55.77734375 C67.21988281 56.47988281 67.49445313 57.18242187 67.77734375 57.90625 C73.05812837 72.447918 73.09386078 88.37694559 73.0871582 103.65527344 C73.09019825 105.10889795 73.093722 106.56252152 73.09768677 108.0161438 C73.10551135 111.12291312 73.11069607 114.22967131 73.11397743 117.33644867 C73.11994813 122.26496287 73.13654427 127.19340716 73.15531921 132.12188721 C73.16165481 133.81765362 73.16798045 135.51342007 73.17429638 137.20918655 C73.17746219 138.05784365 73.180628 138.90650075 73.18388975 139.78087473 C73.22576423 151.23476377 73.25892842 162.68861752 73.27124023 174.14257812 C73.27966018 181.89681666 73.30228838 189.65087848 73.3405959 197.40502858 C73.36021162 201.49444265 73.37280963 205.5835935 73.36776161 209.67305756 C73.36306413 213.52454611 73.37719345 217.37553658 73.40477371 221.2269249 C73.41159869 222.62634775 73.41190798 224.0258231 73.40457344 225.42524338 C73.29323576 249.08928762 82.45519773 265.46531068 96.52832031 283.88305664 C99.84618076 288.31849413 100.46203774 290.84865059 100.3046875 296.29296875 C99.31416553 303.14049021 92.13914487 307.19842528 87.10546875 311.22265625 C83.64831544 313.99318202 80.29750947 316.88141167 76.9453125 319.77734375 C71.91870879 324.10862672 66.83912576 328.36117212 61.68359375 332.5390625 C59.68615617 334.17177539 57.70652401 335.81721987 55.73828125 337.484375 C54.93028076 338.16669189 54.93028076 338.16669189 54.10595703 338.86279297 C52.59303523 340.14274422 51.08352305 341.42672252 49.57421875 342.7109375 C44.92320338 346.36678762 41.94243015 347.38722012 35.9453125 346.77734375 C30.8118619 344.19557316 26.73596164 341.14389524 22.5703125 337.21484375 C22.00795898 336.68818115 21.44560547 336.16151855 20.86621094 335.61889648 C13.60623058 328.69579414 7.63613097 320.90164818 1.8828125 312.71484375 C1.48803711 312.15418213 1.09326172 311.59352051 0.68652344 311.01586914 C-2.0546875 307.02267464 -2.0546875 307.02267464 -2.0546875 304.77734375 C-5.56698134 306.75454413 -8.39191452 308.87577958 -11.3046875 311.65234375 C-25.07099271 324.21000014 -40.28255002 335.65553008 -58.0546875 341.77734375 C-59.04577515 342.12091919 -59.04577515 342.12091919 -60.05688477 342.47143555 C-87.1341334 351.7067478 -124.05713882 354.040342 -150.70703125 341.9609375 C-151.48175781 341.57035156 -152.25648438 341.17976563 -153.0546875 340.77734375 C-154.08722656 340.27332031 -155.11976563 339.76929688 -156.18359375 339.25 C-163.51722187 335.50245655 -169.9005595 331.24525925 -176.0546875 325.77734375 C-176.69019531 325.21273438 -177.32570313 324.648125 -177.98046875 324.06640625 C-182.74204325 319.56877712 -186.67973093 314.38859372 -190.0546875 308.77734375 C-190.0546875 308.11734375 -190.0546875 307.45734375 -190.0546875 306.77734375 C-190.7146875 306.77734375 -191.3746875 306.77734375 -192.0546875 306.77734375 C-193.15947287 303.94425031 -194.2635308 301.11087685 -195.3671875 298.27734375 C-195.67591797 297.48585938 -195.98464844 296.694375 -196.30273438 295.87890625 C-196.92609055 294.27786513 -197.54467519 292.67495878 -198.15869141 291.0703125 C-198.70728347 289.66639516 -199.27757864 288.2704271 -199.88427734 286.890625 C-204.44746067 276.11588375 -204.38598126 264.01309745 -204.31542969 252.48876953 C-204.30458715 250.38285265 -204.31546529 248.27776834 -204.328125 246.171875 C-204.3351515 239.39568773 -204.10191331 233.26397499 -202.0546875 226.77734375 C-201.83167969 225.80410156 -201.60867188 224.83085937 -201.37890625 223.828125 C-197.38235581 206.64050622 -189.66444657 191.11319734 -178.0546875 177.77734375 C-177.3946875 177.77734375 -176.7346875 177.77734375 -176.0546875 177.77734375 C-175.84199219 177.22433594 -175.62929688 176.67132813 -175.41015625 176.1015625 C-173.58868756 172.97829486 -171.10729177 170.88068424 -168.3671875 168.58984375 C-167.79339355 168.1093457 -167.21959961 167.62884766 -166.62841797 167.13378906 C-137.73005767 143.56967204 -100.96567679 137.16165024 -64.98486328 133.08325195 C-63.93416656 132.96312744 -63.93416656 132.96312744 -62.86224365 132.84057617 C-60.93896756 132.62197354 -59.01515216 132.40813099 -57.09130859 132.19458008 C-54.01718998 131.86714852 -54.01718998 131.86714852 -51.0546875 130.77734375 C-48.90453036 130.57048046 -46.74971731 130.4106596 -44.59375 130.27734375 C-43.31757812 130.19484375 -42.04140625 130.11234375 -40.7265625 130.02734375 C-39.3776291 129.94360783 -38.02867041 129.86027834 -36.6796875 129.77734375 C-34.04658666 129.61460261 -31.41391652 129.4471932 -28.78125 129.27734375 C-27.61158691 129.20515625 -26.44192383 129.13296875 -25.23681641 129.05859375 C-22.43622245 128.81106542 -19.7941068 128.39482262 -17.0546875 127.77734375 C-17.09940284 123.03019359 -17.16980226 118.28430361 -17.26220703 113.5378418 C-17.29012167 111.92922088 -17.31148004 110.32047032 -17.32568359 108.71166992 C-17.45017549 95.39518709 -18.17460011 81.81864469 -28.0546875 71.77734375 C-35.92454091 64.21364024 -46.12265076 60.32152284 -56.9921875 60.33984375 C-72.87515992 60.73225108 -87.50816278 63.01995201 -99 74.765625 C-104.66204 81.05546442 -107.67454051 87.053289 -109.984375 95.16210938 C-111.51508599 100.12181438 -113.54148842 103.08011996 -117.0546875 106.77734375 C-123.86043169 110.18021584 -135.22867261 107.42016291 -142.5546875 106.83984375 C-143.73289062 106.75283203 -144.91109375 106.66582031 -146.125 106.57617188 C-147.24648438 106.48916016 -148.36796875 106.40214844 -149.5234375 106.3125 C-150.53857422 106.23394775 -151.55371094 106.15539551 -152.59960938 106.07446289 C-155.0546875 105.77734375 -155.0546875 105.77734375 -157.0546875 104.77734375 C-158.69859659 104.5800674 -160.34868542 104.43297902 -162 104.3125 C-163.49273438 104.19551758 -163.49273438 104.19551758 -165.015625 104.07617188 C-167.10140348 103.92038225 -169.18733963 103.76668719 -171.2734375 103.61523438 C-186.14952141 102.43929715 -186.14952141 102.43929715 -190.9921875 98.21484375 C-191.6728125 97.41046875 -192.3534375 96.60609375 -193.0546875 95.77734375 C-193.3846875 95.44734375 -193.7146875 95.11734375 -194.0546875 94.77734375 C-195.19097335 73.18791257 -181.61790953 49.77352961 -167.78515625 34.2265625 C-158.47222387 24.55254712 -148.06770636 16.78385318 -136.0546875 10.77734375 C-135.32765625 10.37257813 -134.600625 9.9678125 -133.8515625 9.55078125 C-128.14320271 6.45708976 -122.15930812 4.25751996 -116.0546875 2.08984375 C-114.80860718 1.64330444 -114.80860718 1.64330444 -113.53735352 1.18774414 C-80.76835779 -10.15846826 -32.54117706 -13.24043844 0 0 Z " fill="#241F21" transform="translate(699.0546875,117.22265625)"/>
<path d="M0 0 C0.928125 0.20625 1.85625 0.4125 2.8125 0.625 C2.8125 1.285 2.8125 1.945 2.8125 2.625 C3.64136719 2.87636719 4.47023438 3.12773437 5.32421875 3.38671875 C9.27123583 4.78784351 12.89873093 6.53957159 16.625 8.4375 C17.33132568 8.79279785 18.03765137 9.1480957 18.76538086 9.51416016 C22.52626059 11.41771399 26.22401038 13.39123876 29.875 15.5 C32.49579182 17.00406287 34.88971887 18.042109 37.8125 18.8125 C38.8025 19.080625 39.7925 19.34875 40.8125 19.625 C41.3075 20.615 41.3075 20.615 41.8125 21.625 C43.58287914 22.53942716 43.58287914 22.53942716 45.7578125 23.32421875 C46.58039551 23.64302002 47.40297852 23.96182129 48.25048828 24.2902832 C49.58055908 24.79628052 49.58055908 24.79628052 50.9375 25.3125 C57.3838685 27.81597198 63.71351434 30.42220866 69.9375 33.4375 C74.68722496 35.70687021 79.27297702 37.60744343 84.37109375 38.921875 C86.8125 39.625 86.8125 39.625 90.421875 41.01171875 C96.31081438 43.25676089 102.39917715 44.80974011 108.47460938 46.46289062 C109.37630859 46.71361328 110.27800781 46.96433594 111.20703125 47.22265625 C112.02018799 47.44445557 112.83334473 47.66625488 113.67114258 47.89477539 C115.8125 48.625 115.8125 48.625 118.8125 50.625 C120.42403132 51.0183229 122.05218458 51.34664844 123.6875 51.625 C126.34334324 52.07982331 128.67499399 52.56953205 131.17773438 53.57910156 C148.88397497 60.60778343 169.31304342 62.61288198 188.0398407 65.66719055 C192.0169208 66.31775736 195.9809675 67.01693185 199.94140625 67.76171875 C203.75289368 68.46614022 207.50179082 68.94510209 211.375 69.1875 C216.60385618 69.52067809 216.60385618 69.52067809 218.8125 70.625 C221.42745523 70.92550669 224.02562648 71.17248163 226.6484375 71.37890625 C227.45762634 71.44435135 228.26681519 71.50979645 229.1005249 71.57722473 C273.5805161 75.08143345 318.74814434 75.42784964 362.89453125 68.09033203 C366.55916785 67.50592797 370.23227724 66.9863232 373.90625 66.46484375 C376.12118804 66.14580627 378.3359241 65.82540877 380.55056763 65.5043335 C381.98626959 65.29751719 383.42235426 65.09333557 384.8588562 64.89215088 C393.18276711 63.72040101 401.17214362 62.11486437 409.23803711 59.67993164 C413.09153898 58.54264719 416.96218866 57.54748674 420.86328125 56.58984375 C421.54140366 56.42259293 422.21952606 56.2553421 422.91819763 56.08302307 C425.6881596 55.40159499 428.45920782 54.72468311 431.23071289 54.04956055 C438.23261738 52.34040861 445.16736098 50.61663349 451.97680664 48.23022461 C454.57154858 47.37474313 457.18260207 46.88055282 459.875 46.4375 C460.81472656 46.27894531 461.75445313 46.12039063 462.72265625 45.95703125 C463.41230469 45.84746094 464.10195313 45.73789062 464.8125 45.625 C464.8125 44.965 464.8125 44.305 464.8125 43.625 C465.39515625 43.45484375 465.9778125 43.2846875 466.578125 43.109375 C480.6982287 39.06021783 480.6982287 39.06021783 493.8125 32.625 C498.08567172 30.43362989 502.08308248 29.97530224 506.8125 30.625 C509.17543002 31.78132746 510.96233755 32.77483755 512.8125 34.625 C513.3915928 38.17194342 513.44027214 40.62279997 511.49609375 43.7265625 C507.77013536 48.17770743 504.05629605 51.15733127 498.8125 53.625 C498.1525 53.625 497.4925 53.625 496.8125 53.625 C496.8125 54.285 496.8125 54.945 496.8125 55.625 C495.884375 55.975625 494.95625 56.32625 494 56.6875 C490.71288801 58.08877882 487.85305149 59.84212756 484.875 61.8125 C478.48134022 65.97012576 471.76662047 69.25999619 464.91943359 72.58691406 C462.7932334 73.63449265 460.6863338 74.71385598 458.58203125 75.8046875 C446.09934462 82.24971953 446.09934462 82.24971953 439.21875 83.95703125 C434.18850308 85.35341473 429.35537082 87.39920927 424.515625 89.34375 C417.02652965 92.34971333 409.72189264 95.12207597 401.828125 96.890625 C398.97039059 97.58654996 396.19841463 98.43843735 393.40478516 99.35546875 C375.8727385 105.09940064 358.13207857 108.32201112 339.80175781 110.2019043 C337.19353321 110.57106905 334.66601182 111.05860753 332.08935547 111.59790039 C315.1757509 115.03678435 297.73063614 114.94636027 280.54541016 114.88574219 C276.94807001 114.87503147 273.35123132 114.88570361 269.75390625 114.8984375 C245.16513444 114.91345422 219.86519725 113.88643239 196.015625 107.37890625 C190.92031082 106.17964328 185.75141036 105.45646766 180.57202148 104.71484375 C175.84331265 104.02064898 171.39887933 103.01298322 166.8125 101.625 C165.00135433 101.20248522 163.18886442 100.78568628 161.375 100.375 C155.5886542 98.95570763 150.12409496 96.97564184 144.59594727 94.78222656 C140.05227444 92.99958015 135.56074201 91.76108244 130.8125 90.625 C129.18015023 90.12768061 127.55316845 89.61159728 125.9375 89.0625 C125.19757813 88.81371094 124.45765625 88.56492187 123.6953125 88.30859375 C121.8125 87.625 121.8125 87.625 119.8125 86.625 C119.8125 85.965 119.8125 85.305 119.8125 84.625 C119.22984375 84.55023437 118.6471875 84.47546875 118.046875 84.3984375 C111.54645457 83.35591724 106.36501583 81.13255293 100.55859375 78.0703125 C97.38180515 76.3983185 94.1142805 75.03131392 90.8125 73.625 C87.45951611 71.99706063 84.13733366 70.30951691 80.8125 68.625 C78.93801174 67.68647723 77.06303026 66.74893873 75.1875 65.8125 C73.72916667 65.08333333 72.27083333 64.35416667 70.8125 63.625 C70.8125 62.965 70.8125 62.305 70.8125 61.625 C69.80058594 61.3775 68.78867187 61.13 67.74609375 60.875 C63.75650231 59.73310636 60.36462447 57.83656453 56.875 55.625 C56.28654297 55.26921875 55.69808594 54.9134375 55.09179688 54.546875 C53.62548939 53.63405176 52.21300251 52.63588903 50.8125 51.625 C50.8125 50.965 50.8125 50.305 50.8125 49.625 C50.2453125 49.5115625 49.678125 49.398125 49.09375 49.28125 C40.41376423 46.78426779 31.60704254 39.46223586 24.8125 33.625 C24.8125 32.965 24.8125 32.305 24.8125 31.625 C23.95978516 31.48191406 23.95978516 31.48191406 23.08984375 31.3359375 C20.27677094 30.45775696 18.6468649 29.12725768 16.375 27.25 C15.50746094 26.53585937 14.63992188 25.82171875 13.74609375 25.0859375 C12.77800781 24.27382813 11.80992187 23.46171875 10.8125 22.625 C10.26223145 22.16641602 9.71196289 21.70783203 9.14501953 21.23535156 C7.40602519 19.7856186 5.6707925 18.3315442 3.9375 16.875 C3.1168103 16.18591553 3.1168103 16.18591553 2.27954102 15.48291016 C-6.07885936 8.40100458 -6.07885936 8.40100458 -6.625 4.5 C-6.4084375 3.076875 -6.4084375 3.076875 -6.1875 1.625 C-3.1875 -0.375 -3.1875 -0.375 0 0 Z " fill="#F7A61D" transform="translate(359.1875,464.375)"/>
<path d="M0 0 C1.0120752 0.00310181 2.02415039 0.00620361 3.06689453 0.00939941 C5.53941806 0.01742709 8.01188104 0.02868577 10.484375 0.04296875 C10.55950333 6.01624925 10.61343097 11.98924434 10.64916992 17.96289062 C10.66409584 19.98767905 10.68444393 22.01243609 10.71069336 24.03710938 C10.90457465 39.39554876 10.63641338 54.40192508 4.359375 68.73046875 C3.9104187 69.77944336 3.9104187 69.77944336 3.45239258 70.84960938 C-4.32166497 88.26730889 -16.28467775 99.24517543 -33.890625 106.41796875 C-45.99808827 108.50546242 -56.73001325 107.42535293 -67.125 100.79296875 C-76.29744827 94.07849681 -80.55255748 84.49413744 -82.828125 73.54296875 C-85.27637029 57.26796672 -83.0740071 40.35471599 -73.80078125 26.4765625 C-59.87694584 9.5501241 -37.20446569 2.5279982 -16.12280273 0.35498047 C-10.75037373 -0.07695114 -5.38625993 -0.03165523 0 0 Z " fill="#F5F5F5" transform="translate(671.515625,295.95703125)"/>
<path d="M0 0 C0.72100388 -0.00570007 1.44200775 -0.01140015 2.18486023 -0.01727295 C3.71900973 -0.02673453 5.25317966 -0.03326151 6.78735352 -0.03710938 C9.08974251 -0.04667973 11.39118528 -0.07763114 13.69335938 -0.109375 C25.05798508 -0.19056628 38.22504436 -0.02062286 47.44555664 7.53100586 C49.18061106 9.63537768 49.2226452 10.75321832 49.2578125 13.45703125 C49.27497314 14.7251062 49.27497314 14.7251062 49.29248047 16.01879883 C49.2823291 16.92525146 49.27217773 17.8317041 49.26171875 18.765625 C49.25414551 19.70365967 49.24657227 20.64169434 49.23876953 21.6081543 C48.66704638 46.32370434 38.27852429 72.76519764 21.82421875 91.203125 C21.13070312 92.02683594 20.4371875 92.85054687 19.72265625 93.69921875 C16.36099442 97.63374804 13.51226061 100.84407829 8.82421875 103.203125 C6.01171875 102.890625 6.01171875 102.890625 3.82421875 102.203125 C3.91379605 100.86873211 4.02192905 99.53558581 4.13671875 98.203125 C4.22373047 97.089375 4.22373047 97.089375 4.3125 95.953125 C4.85944957 93.01379294 5.80972404 90.36570997 6.89477539 87.58544922 C8.8096585 82.67727235 10.58373843 77.71573248 12.38671875 72.765625 C12.78568359 71.68474609 13.18464844 70.60386719 13.59570312 69.49023438 C15.56309813 64.0741503 17.28534572 58.78694917 18.40405273 53.13208008 C18.82421875 51.203125 18.82421875 51.203125 19.91796875 48.1484375 C21.05599627 44.44984806 21.26727829 40.91448837 21.32421875 37.078125 C21.36546875 36.37558594 21.40671875 35.67304688 21.44921875 34.94921875 C21.55036324 32.59901562 21.55036324 32.59901562 20.82421875 29.203125 C14.78993909 23.55995605 6.65260026 22.8914171 -1.26953125 22.9375 C-2.01932251 22.93558655 -2.76911377 22.9336731 -3.54162598 22.93170166 C-5.12150408 22.93034924 -6.70139366 22.93397932 -8.28125 22.94238281 C-10.64219621 22.95297433 -13.0023602 22.94251859 -15.36328125 22.9296875 C-26.73670345 22.91957197 -38.09460877 23.4297976 -49.17578125 26.203125 C-52.80078125 26.390625 -52.80078125 26.390625 -56.17578125 26.203125 C-56.83578125 25.543125 -57.49578125 24.883125 -58.17578125 24.203125 C-58.11328125 21.828125 -58.11328125 21.828125 -57.17578125 19.203125 C-52.74698967 15.0203774 -47.77732156 12.44374112 -42.17578125 10.203125 C-41.47839844 9.74164063 -40.78101563 9.28015625 -40.0625 8.8046875 C-36.33565036 6.7370172 -32.5880311 5.68216552 -28.48828125 4.578125 C-27.68970703 4.35866211 -26.89113281 4.13919922 -26.06835938 3.91308594 C-21.03189812 2.57316631 -16.14787094 1.59760158 -10.92578125 1.34375 C-7.25216696 1.04854885 -3.89012767 0.02387015 0 0 Z " fill="#F6A61F" transform="translate(873.17578125,453.796875)"/>
<path d="M0 0 C0.928125 0.20625 1.85625 0.4125 2.8125 0.625 C2.8125 1.285 2.8125 1.945 2.8125 2.625 C3.67101562 2.89054687 4.52953125 3.15609375 5.4140625 3.4296875 C8.84160808 4.63523801 11.95423798 6.09744386 15.1875 7.75 C16.24710937 8.28882813 17.30671875 8.82765625 18.3984375 9.3828125 C19.19507813 9.79273438 19.99171875 10.20265625 20.8125 10.625 C18.1458581 11.95832095 16.64569697 11.29602033 13.8125 10.625 C13.8125 9.965 13.8125 9.305 13.8125 8.625 C12.1625 8.955 10.5125 9.285 8.8125 9.625 C8.68875 10.264375 8.565 10.90375 8.4375 11.5625 C8.23125 12.243125 8.025 12.92375 7.8125 13.625 C6.8225 14.12 6.8225 14.12 5.8125 14.625 C5.4825 15.615 5.1525 16.605 4.8125 17.625 C3.16313952 16.33784028 1.51810953 15.04512981 -0.125 13.75 C-1.04152344 13.03070313 -1.95804687 12.31140625 -2.90234375 11.5703125 C-5.76731936 9.13141018 -6.12517596 8.37288845 -6.4375 4.625 C-6.355 3.635 -6.2725 2.645 -6.1875 1.625 C-3.1875 -0.375 -3.1875 -0.375 0 0 Z " fill="#F3A525" transform="translate(359.1875,464.375)"/>
<path d="M0 0 C0 0.33 0 0.66 0 1 C-0.95712891 1.09087891 -0.95712891 1.09087891 -1.93359375 1.18359375 C-2.75988281 1.26738281 -3.58617187 1.35117187 -4.4375 1.4375 C-5.67306641 1.55931641 -5.67306641 1.55931641 -6.93359375 1.68359375 C-8.98662025 1.78930815 -8.98662025 1.78930815 -10 3 C-17.9748368 4.21709122 -26.07544079 4.14694514 -34.12109375 4.1328125 C-35.95281883 4.13424759 -35.95281883 4.13424759 -37.82154846 4.13571167 C-40.38892672 4.13638833 -42.95630673 4.13457011 -45.52368164 4.13037109 C-49.42272846 4.12502027 -53.32165986 4.13033131 -57.22070312 4.13671875 C-59.72916692 4.13605779 -62.23763064 4.13477625 -64.74609375 4.1328125 C-66.47163734 4.13584885 -66.47163734 4.13584885 -68.23204041 4.13894653 C-75.53480717 4.11811011 -82.73289035 3.72057351 -90 3 C-90 2.34 -90 1.68 -90 1 C-88.76210724 1.00333092 -88.76210724 1.00333092 -87.49920654 1.00672913 C-79.67395775 1.02687095 -71.84871783 1.0420444 -64.02344894 1.05181217 C-60.00162387 1.05700288 -55.97982044 1.0640302 -51.95800781 1.07543945 C-48.06763754 1.08640518 -44.17728793 1.09230545 -40.28690338 1.09487724 C-38.8119601 1.09670708 -37.33701778 1.1002795 -35.86208344 1.10573006 C-28.07812918 1.13331838 -20.37429611 1.0050487 -12.62237549 0.22142029 C-8.41628747 -0.13372078 -4.21722427 -0.08397128 0 0 Z " fill="#FDEAC5" transform="translate(686,577)"/>
<path d="M0 0 C2.97922593 -0.02683987 5.95821295 -0.04676037 8.9375 -0.0625 C9.78763672 -0.07087891 10.63777344 -0.07925781 11.51367188 -0.08789062 C12.32255859 -0.09111328 13.13144531 -0.09433594 13.96484375 -0.09765625 C14.7137085 -0.10289307 15.46257324 -0.10812988 16.23413086 -0.11352539 C18 0 18 0 19 1 C21.40250532 1.12489698 23.77772785 1.1860079 26.18188477 1.20532227 C26.93305573 1.21522186 27.68422668 1.22512146 28.4581604 1.23532104 C30.95254312 1.26702546 33.44694491 1.29172859 35.94140625 1.31640625 C37.66634123 1.33696807 39.39127108 1.35796433 41.11619568 1.37937927 C45.66506814 1.43467971 50.21398667 1.48405369 54.76293945 1.53222656 C59.40124633 1.58238354 64.03948598 1.63809983 68.67773438 1.69335938 C77.78509888 1.80103839 86.89252165 1.90246157 96 2 C96 2.33 96 2.66 96 3 C87.79091079 3.80046826 79.66792983 4.15953228 71.421875 4.16796875 C70.25279602 4.17129715 69.08371704 4.17462555 67.87921143 4.17805481 C65.41524647 4.1830872 62.95127478 4.18546428 60.48730469 4.18530273 C56.8013113 4.18746983 53.11562738 4.20561223 49.4296875 4.22460938 C37.73501764 4.2529488 26.11464765 4.04518104 14.453125 3.11328125 C12.95274689 2.99668404 12.95274689 2.99668404 11.42205811 2.87773132 C10.50064026 2.79473282 9.57922241 2.71173431 8.62988281 2.6262207 C7.82834778 2.55409866 7.02681274 2.48197662 6.20098877 2.40766907 C3.84130627 1.97060661 2.083853 1.17049905 0 0 Z " fill="#EAA736" transform="translate(580,575)"/>
<path d="M0 0 C0 0.66 0 1.32 0 2 C-0.99902344 2.20496094 -1.99804688 2.40992188 -3.02734375 2.62109375 C-4.31769531 2.89050781 -5.60804688 3.15992188 -6.9375 3.4375 C-8.22527344 3.70433594 -9.51304687 3.97117187 -10.83984375 4.24609375 C-13.84638879 4.67181616 -13.84638879 4.67181616 -15 6 C-17.0572917 6.31923492 -19.11613521 6.51161352 -21.1875 6.71875 C-23.0167533 6.81998043 -23.0167533 6.81998043 -24 8 C-25.78715644 8.20956883 -27.58043769 8.36811616 -29.375 8.5 C-32.52020509 8.73236344 -34.99627907 8.99875969 -38 10 C-40.73865287 10.07051114 -43.45027588 10.09357765 -46.1875 10.0625 C-46.93708984 10.05798828 -47.68667969 10.05347656 -48.45898438 10.04882812 C-50.30602383 10.03706354 -52.15302213 10.01912865 -54 10 C-54 9.67 -54 9.34 -54 9 C-50.29214782 8.37212363 -46.58371145 7.74778052 -42.875 7.125 C-41.77510742 6.9401001 -40.67521484 6.7552002 -39.54199219 6.56469727 C-33.78597718 5.604655 -28.03512661 4.70145013 -22.25 3.9375 C-16.88266513 3.20916972 -11.74196111 2.02996732 -6.5234375 0.5859375 C-4 0 -4 0 0 0 Z " fill="#FBE4BB" transform="translate(740,567)"/>
<path d="M0 0 C23.76 0 47.52 0 72 0 C72 0.33 72 0.66 72 1 C69.36 1 66.72 1 64 1 C64 1.66 64 2.32 64 3 C56.17112032 2.8819903 48.34237014 2.75716906 40.51367188 2.62768555 C37.85223551 2.58397583 35.19079409 2.54277819 32.52929688 2.50268555 C28.69653655 2.44467852 24.86390306 2.38107248 21.03125 2.31640625 C19.25578796 2.29133751 19.25578796 2.29133751 17.44445801 2.26576233 C11.55038357 2.16085153 5.83096327 1.87902397 0 1 C0 0.67 0 0.34 0 0 Z " fill="#E8AF4D" transform="translate(608,538)"/>
<path d="M0 0 C1.8253125 0.0309375 1.8253125 0.0309375 3.6875 0.0625 C3.6875 0.3925 3.6875 0.7225 3.6875 1.0625 C2.65810303 1.23640259 2.65810303 1.23640259 1.60791016 1.41381836 C-1.49112873 1.93925276 -4.58931344 2.46956403 -7.6875 3 C-8.76773438 3.18240234 -9.84796875 3.36480469 -10.9609375 3.55273438 C-11.9921875 3.72998047 -13.0234375 3.90722656 -14.0859375 4.08984375 C-15.03903809 4.25218506 -15.99213867 4.41452637 -16.97412109 4.58178711 C-19.32166968 4.9596068 -19.32166968 4.9596068 -21.3125 6.0625 C-23.85998099 6.30299646 -26.38407291 6.48791269 -28.9375 6.625 C-29.68572021 6.6674585 -30.43394043 6.70991699 -31.20483398 6.75366211 C-38.90875945 7.15479893 -46.60084197 7.15591174 -54.3125 7.0625 C-54.3125 6.7325 -54.3125 6.4025 -54.3125 6.0625 C-53.69544189 6.01762451 -53.07838379 5.97274902 -52.44262695 5.92651367 C-37.08732093 4.78703389 -21.60254872 3.62292682 -6.5 0.4765625 C-4.27746833 0.055869 -2.25827282 -0.03827581 0 0 Z " fill="#EFBC67" transform="translate(734.3125,530.9375)"/>
<path d="M0 0 C8.47039317 0.91368454 16.59047553 2.02807138 24.828125 4.26953125 C31.12780152 5.72031882 37.5797932 6.307465 44 7 C44 7.33 44 7.66 44 8 C37.37641065 8.25259451 30.94185184 7.87967551 24.375 7.0625 C23.30862305 6.93222412 23.30862305 6.93222412 22.22070312 6.79931641 C17.13023383 6.13023383 17.13023383 6.13023383 16 5 C14.845 4.835 13.69 4.67 12.5 4.5 C9 4 9 4 8 3 C6.845 2.855625 5.69 2.71125 4.5 2.5625 C3.345 2.376875 2.19 2.19125 1 2 C0.67 1.34 0.34 0.68 0 0 Z " fill="#FBE3B7" transform="translate(540,569)"/>
<path d="M0 0 C0 0.66 0 1.32 0 2 C1.65 2 3.3 2 5 2 C5 2.33 5 2.66 5 3 C-4.54088039 5.46780409 -13.84813654 5.22662262 -23.625 5.125 C-25.31379677 5.11494957 -27.00259934 5.10582737 -28.69140625 5.09765625 C-32.79441594 5.07580739 -36.89714282 5.04139154 -41 5 C-41 4.67 -41 4.34 -41 4 C-40.11739502 3.98541748 -39.23479004 3.97083496 -38.32543945 3.95581055 C-35.03561357 3.89457933 -31.7466007 3.8203967 -28.45727539 3.73754883 C-27.03648798 3.70439443 -25.61557187 3.67633308 -24.19458008 3.65356445 C-22.1460918 3.61984153 -20.0987728 3.56752255 -18.05078125 3.51171875 C-16.82012939 3.48553467 -15.58947754 3.45935059 -14.3215332 3.43237305 C-8.75279452 2.70747513 -5.91401641 -0.4126058 0 0 Z " fill="#474545" transform="translate(617,461)"/>
<path d="M0 0 C0.66 0 1.32 0 2 0 C2.02684312 2.81256281 2.04676188 5.62487241 2.0625 8.4375 C2.07087891 9.23994141 2.07925781 10.04238281 2.08789062 10.86914062 C2.0965143 12.91295221 2.0522815 14.95683902 2 17 C1.67 17.33 1.34 17.66 1 18 C0.814375 19.60875 0.814375 19.60875 0.625 21.25 C0.01126987 24.9323808 -0.89293992 26.97682684 -3 30 C-4.18915908 26.55143867 -3.76991049 24.60647581 -2.625 21.1875 C-0.54309923 14.17177959 -0.28488151 7.27921382 0 0 Z " fill="#ECB048" transform="translate(895,484)"/>
<path d="M0 0 C2.62538284 0.14053872 5.25017427 0.28718947 7.875 0.4375 C8.99455078 0.49647461 8.99455078 0.49647461 10.13671875 0.55664062 C15.7734375 0.88671875 15.7734375 0.88671875 18 2 C19.95643473 2.22239689 21.91897725 2.39215854 23.8828125 2.53515625 C25.04941406 2.62216797 26.21601562 2.70917969 27.41796875 2.79882812 C28.64128906 2.88583984 29.86460937 2.97285156 31.125 3.0625 C32.97158203 3.19881836 32.97158203 3.19881836 34.85546875 3.33789062 C37.90339115 3.56235003 40.95154703 3.78288542 44 4 C44 4.33 44 4.66 44 5 C32.94438708 5.09920291 22.01093413 5.12520495 11 4 C11 3.34 11 2.68 11 2 C8.02148438 2.09765625 8.02148438 2.09765625 5.04296875 2.1953125 C3 2 3 2 0 0 Z " fill="#EBB450" transform="translate(560,533)"/>
<path d="M0 0 C1.4540625 0.0309375 1.4540625 0.0309375 2.9375 0.0625 C-0.51783231 3.17318279 -4.20127328 4.07188858 -8.625 5.0625 C-10.05889488 5.39845694 -11.49248827 5.73570313 -12.92578125 6.07421875 C-13.62783691 6.23841309 -14.32989258 6.40260742 -15.05322266 6.57177734 C-18.6834671 7.45838625 -22.25547478 8.55165533 -25.828125 9.64453125 C-28.26139366 10.09970563 -29.73765772 9.84633444 -32.0625 9.0625 C-27.29746378 6.82585035 -23.34060598 5.69587272 -18.0625 5.0625 C-17.7325 4.7325 -17.4025 4.4025 -17.0625 4.0625 C-15.06291636 4.02169217 -13.06204746 4.01995644 -11.0625 4.0625 C-11.0625 3.4025 -11.0625 2.7425 -11.0625 2.0625 C-9.928125 1.918125 -8.79375 1.77375 -7.625 1.625 C-3.97252634 1.04829363 -3.54680005 0.07238367 0 0 Z " fill="#FBE8C5" transform="translate(813.0625,510.9375)"/>
<path d="M0 0 C4.95694043 0.70813435 8.45443775 2.45443775 12 6 C12.24291992 8.07543945 12.24291992 8.07543945 12.23046875 10.61328125 C12.22853516 11.53173828 12.22660156 12.45019531 12.22460938 13.39648438 C12.21236328 14.35876953 12.20011719 15.32105469 12.1875 16.3125 C12.18685547 17.26318359 12.18621094 18.21386719 12.18554688 19.19335938 C12.15771666 23.61836294 11.9699385 27.66696302 11 32 C10.67 32 10.34 32 10 32 C10.00523682 31.2479126 10.01047363 30.4958252 10.01586914 29.72094727 C10.03657227 26.33480658 10.04963877 22.94867916 10.0625 19.5625 C10.07087891 18.37849609 10.07925781 17.19449219 10.08789062 15.97460938 C10.09111328 14.84990234 10.09433594 13.72519531 10.09765625 12.56640625 C10.10289307 11.52427979 10.10812988 10.48215332 10.11352539 9.40844727 C10.27305556 7.04871253 10.27305556 7.04871253 9 6 C6.67182036 5.63239269 4.3381615 5.29758419 2 5 C2 4.34 2 3.68 2 3 C1.34 2.67 0.68 2.34 0 2 C0 1.34 0 0.68 0 0 Z " fill="#EDAA40" transform="translate(910,457)"/>
<path d="M0 0 C1.25691607 4.13884506 0.34684591 7.00590522 -1 11 C-1.26554688 11.80953125 -1.53109375 12.6190625 -1.8046875 13.453125 C-2.52642639 15.63896277 -3.25874708 17.82071641 -4 20 C-4.66 20 -5.32 20 -6 20 C-6 22.31 -6 24.62 -6 27 C-4.68 27 -3.36 27 -2 27 C-1.67 26.01 -1.34 25.02 -1 24 C-0.67 24.99 -0.34 25.98 0 27 C-3 29 -3 29 -5.6875 28.625 C-6.8321875 28.315625 -6.8321875 28.315625 -8 28 C-7.58349136 21.79545745 -6.34375353 16.72691081 -4 11 C-3.26357998 9.00265937 -2.53464567 7.00254579 -1.8125 5 C-1.46832031 4.05125 -1.12414062 3.1025 -0.76953125 2.125 C-0.51558594 1.42375 -0.26164063 0.7225 0 0 Z " fill="#ECAF4C" transform="translate(885,528)"/>
<path d="M0 0 C2.91517292 1.07401108 4.77810176 1.77810176 7 4 C7.17315986 6.6443565 7.23218566 9.17134216 7.1875 11.8125 C7.18685547 12.52470703 7.18621094 13.23691406 7.18554688 13.97070312 C7.15395907 17.76474979 6.90568676 21.31204349 6 25 C5.67 25 5.34 25 5 25 C5 18.07 5 11.14 5 4 C3.35 4.33 1.7 4.66 0 5 C0 3.35 0 1.7 0 0 Z " fill="#F9ECCA" transform="translate(888,479)"/>
<path d="M0 0 C0 0.66 0 1.32 0 2 C-0.86625 2.2475 -1.7325 2.495 -2.625 2.75 C-6.06561166 3.85516483 -6.06561166 3.85516483 -8.875 6.0625 C-13.13405166 8.70311203 -17.20913782 9.60776615 -22.2421875 8.51171875 C-22.82226562 8.34285156 -23.40234375 8.17398438 -24 8 C-4.76595745 0 -4.76595745 0 0 0 Z " fill="#FCE7C2" transform="translate(802,547)"/>
<path d="M0 0 C8.53991093 -0.68870249 10.47090071 0.73545035 19 5 C19 12.59 19 20.18 19 28 C18.67 28 18.34 28 18 28 C17.98541748 27.40985107 17.97083496 26.81970215 17.95581055 26.21166992 C17.88131156 23.53628771 17.78466005 20.86215108 17.6875 18.1875 C17.66494141 17.25873047 17.64238281 16.32996094 17.61914062 15.37304688 C17.5659668 14.0340332 17.5659668 14.0340332 17.51171875 12.66796875 C17.48553467 11.84578857 17.45935059 11.0236084 17.43237305 10.17651367 C16.90846142 7.53920586 16.07403266 6.65839421 14 5 C9.56646756 2.78796036 4.90605939 1.61325742 0 1 C0 0.67 0 0.34 0 0 Z " fill="#FAE7C3" transform="translate(904,455)"/>
<path d="M0 0 C2.97922593 -0.02683987 5.95821295 -0.04676037 8.9375 -0.0625 C9.78763672 -0.07087891 10.63777344 -0.07925781 11.51367188 -0.08789062 C12.32255859 -0.09111328 13.13144531 -0.09433594 13.96484375 -0.09765625 C14.7137085 -0.10289307 15.46257324 -0.10812988 16.23413086 -0.11352539 C18 0 18 0 19 1 C20.51469448 1.23192865 22.03754562 1.41215238 23.5625 1.5625 C24.38878906 1.64628906 25.21507812 1.73007812 26.06640625 1.81640625 C26.70449219 1.87699219 27.34257813 1.93757812 28 2 C28 2.33 28 2.66 28 3 C18.49095101 3.32417212 9.38695104 2.33418593 0 1 C0 0.67 0 0.34 0 0 Z " fill="#EEAB42" transform="translate(580,575)"/>
<path d="M0 0 C0.33 0.99 0.66 1.98 1 3 C4.96 3.33 8.92 3.66 13 4 C12 6 12 6 10.375 6.625 C7.19408728 7.12724938 4.21393904 7.17855217 1 7 C0.34 6.34 -0.32 5.68 -1 5 C-0.625 2.375 -0.625 2.375 0 0 Z " fill="#EFB045" transform="translate(816,473)"/>
<path d="M0 0 C-18.97233202 8 -18.97233202 8 -24 8 C-24 7.34 -24 6.68 -24 6 C-22.35 6 -20.7 6 -19 6 C-19 5.34 -19 4.68 -19 4 C-17.02 4 -15.04 4 -13 4 C-13 3.34 -13 2.68 -13 2 C-11.35 2 -9.7 2 -8 2 C-8 1.34 -8 0.68 -8 0 C-4.71303767 -0.79953138 -3.28976808 -1.09658936 0 0 Z " fill="#EBAF4B" transform="translate(812,543)"/>
<path d="M0 0 C0 0.33 0 0.66 0 1 C-0.60585938 1.03738281 -1.21171875 1.07476562 -1.8359375 1.11328125 C-7.42496304 1.55180479 -12.37532425 2.54783929 -17.67578125 4.37890625 C-20.20570025 5.05496864 -22.39297034 5.10612687 -25 5 C-18.14283638 -1.28573332 -8.65574711 -0.23750526 0 0 Z " fill="#F9EAC4" transform="translate(864,455)"/>
<path d="M0 0 C5.28 0.33 10.56 0.66 16 1 C16 1.66 16 2.32 16 3 C17.423125 2.938125 17.423125 2.938125 18.875 2.875 C22 3 22 3 24 5 C15.81911794 4.4533512 7.98214061 2.82876132 0 1 C0 0.67 0 0.34 0 0 Z " fill="#FDE6BB" transform="translate(504,522)"/>
<path d="M0 0 C0.99 0.495 0.99 0.495 2 1 C7.72224444 1.23842685 13.316977 0.64034062 19 0 C19 0.66 19 1.32 19 2 C15.81175432 3.59412284 12.37103338 3.10174735 8.875 3.0625 C8.12089844 3.05798828 7.36679687 3.05347656 6.58984375 3.04882812 C4.72652873 3.03703499 2.86325445 3.01909942 1 3 C0.67 2.01 0.34 1.02 0 0 Z " fill="#FBECCA" transform="translate(815,478)"/>
<path d="M0 0 C2.64 0.33 5.28 0.66 8 1 C8 1.66 8 2.32 8 3 C8.9075 2.95875 9.815 2.9175 10.75 2.875 C13.8782046 2.99531556 15.38614006 3.3914708 18 5 C18 5.66 18 6.32 18 7 C11.53287812 5.83805848 5.90377651 3.8751252 0 1 C0 0.67 0 0.34 0 0 Z " fill="#EBB148" transform="translate(460,542)"/>
<path d="M0 0 C5.28 0 10.56 0 16 0 C16 0.33 16 0.66 16 1 C13.36 1 10.72 1 8 1 C8 1.66 8 2.32 8 3 C5.03 3 2.06 3 -1 3 C-0.67 2.01 -0.34 1.02 0 0 Z " fill="#F1B046" transform="translate(664,538)"/>
<path d="M0 0 C-6.340671 4.57118142 -12.31796353 4.76896131 -20 5 C-17.0051909 3.0034606 -14.88551663 2.31442567 -11.4375 1.4375 C-2.68560516 -0.80568155 -2.68560516 -0.80568155 0 0 Z " fill="#F9E3B7" transform="translate(778,557)"/>
<path d="M0 0 C-3.05397937 2.65625183 -5.10378784 3.39693125 -9.125 3.625 C-12.69910419 3.79582344 -12.69910419 3.79582344 -16 5 C-17.67654729 4.72057545 -19.34608154 4.39171753 -21 4 C-21 3.67 -21 3.34 -21 3 C-18.43850372 2.49432271 -15.87600535 1.99529868 -13.3125 1.5 C-12.59126953 1.35691406 -11.87003906 1.21382812 -11.12695312 1.06640625 C-7.36158641 0.34428113 -3.85526187 -0.1824976 0 0 Z " fill="#484747" transform="translate(612,254)"/>
<path d="M0 0 C1.70703125 1.515625 1.70703125 1.515625 3 3 C0.70858714 3.05384521 -1.58318188 3.09272087 -3.875 3.125 C-5.78925781 3.15980469 -5.78925781 3.15980469 -7.7421875 3.1953125 C-11 3 -11 3 -13 1 C-8.60590108 0.14261484 -4.47621945 -0.33782788 0 0 Z " fill="#3F3D3E" transform="translate(555,220)"/>
<path d="M0 0 C0.66 0.33 1.32 0.66 2 1 C1.01 1.33 0.02 1.66 -1 2 C-1.33 2.99 -1.66 3.98 -2 5 C-6.09724467 6.54613006 -8.81857651 7.29227216 -13 6 C-12.39671875 5.73445313 -11.7934375 5.46890625 -11.171875 5.1953125 C-10.37265625 4.84210938 -9.5734375 4.48890625 -8.75 4.125 C-7.96109375 3.77695312 -7.1721875 3.42890625 -6.359375 3.0703125 C-4.00201947 2.03750349 -4.00201947 2.03750349 -1.828125 0.8046875 C-1.22484375 0.53914063 -0.6215625 0.27359375 0 0 Z " fill="#EDA938" transform="translate(853,497)"/>
<path d="M0 0 C0 3 0 3 -1.4375 5.6875 C-4.3433799 8.30987942 -5.00618885 8.32429153 -8.75 8.3125 C-10.16823316 8.23243845 -11.58603027 8.13595863 -13 8 C-12.67 7.34 -12.34 6.68 -12 6 C-11.113125 5.896875 -10.22625 5.79375 -9.3125 5.6875 C-4.9589228 4.78392737 -3.22704114 2.9965382 0 0 Z " fill="#FBECCE" transform="translate(890,550)"/>
<path d="M0 0 C0.33 0 0.66 0 1 0 C0.91256669 1.91750286 0.8043811 3.83406665 0.6875 5.75 C0.62949219 6.81734375 0.57148437 7.8846875 0.51171875 8.984375 C-0.03090154 12.1821068 -0.85071145 13.62598691 -3 16 C-4.31225809 12.06322574 -3.3393954 10.2205738 -2.0625 6.3125 C-1.68222656 5.13300781 -1.30195312 3.95351563 -0.91015625 2.73828125 C-0.60980469 1.83464844 -0.30945313 0.93101562 0 0 Z " fill="#FBE9C2" transform="translate(919,495)"/>
<path d="M0 0 C0.33 0 0.66 0 1 0 C1.19118486 4.77962147 0.98834962 8.60470084 -1 13 C-1.99 13.33 -2.98 13.66 -4 14 C-3.00956295 9.16371695 -2.04301154 4.52381127 0 0 Z " fill="#EDB44D" transform="translate(890,514)"/>
<path d="M0 0 C0.66 0.33 1.32 0.66 2 1 C2.602537 7.02536998 2.602537 7.02536998 0.88671875 9.80078125 C-0.34621853 11.25599455 -1.66808933 12.63479157 -3 14 C-3.33 12.68 -3.66 11.36 -4 10 C-3.01 10 -2.02 10 -1 10 C-1 8.68 -1 7.36 -1 6 C-0.34 6 0.32 6 1 6 C0.67 4.02 0.34 2.04 0 0 Z " fill="#E8AC41" transform="translate(870,498)"/>
<path d="M0 0 C0.928125 0.20625 1.85625 0.4125 2.8125 0.625 C2.8125 1.285 2.8125 1.945 2.8125 2.625 C0.1725 2.625 -2.4675 2.625 -5.1875 2.625 C-5.1875 4.275 -5.1875 5.925 -5.1875 7.625 C-5.5175 7.625 -5.8475 7.625 -6.1875 7.625 C-6.375 4.75 -6.375 4.75 -6.1875 1.625 C-3.1875 -0.375 -3.1875 -0.375 0 0 Z " fill="#E9B857" transform="translate(359.1875,464.375)"/>
<path d="M0 0 C0 3.23830467 -0.29194726 4.31591712 -2 7 C-4.625 9.25 -4.625 9.25 -7 11 C-7.66 10.67 -8.32 10.34 -9 10 C-6.03 6.7 -3.06 3.4 0 0 Z " fill="#353535" transform="translate(535,148)"/>
<path d="M0 0 C6.45892714 -0.40368295 11.06108578 0.4084738 17 3 C17 3.33 17 3.66 17 4 C11.147205 3.48517081 5.6702363 2.54642808 0 1 C0 0.67 0 0.34 0 0 Z " fill="#F0B14E" transform="translate(556,571)"/>
<path d="M0 0 C1.91302307 3.26613695 2.35674661 5.99445248 2.625 9.75 C2.69976563 10.73484375 2.77453125 11.7196875 2.8515625 12.734375 C2.92503906 13.85585938 2.92503906 13.85585938 3 15 C1.27642881 12.41464321 0.55264982 10.96188386 -0.1875 8.0625 C-0.36667969 7.39347656 -0.54585937 6.72445313 -0.73046875 6.03515625 C-1.03268678 3.75319112 -0.68756692 2.17973341 0 0 Z " fill="#2A2828" transform="translate(772,356)"/>
<path d="M0 0 C-0.33 0.99 -0.66 1.98 -1 3 C-5.02040985 3.69584017 -8.08263419 4.1700097 -12 3 C-10.75336669 2.49166409 -9.50250613 1.99368855 -8.25 1.5 C-7.55390625 1.2215625 -6.8578125 0.943125 -6.140625 0.65625 C-4 0 -4 0 0 0 Z " fill="#3D3D3D" transform="translate(580,122)"/>
<path d="M0 0 C-0.99 0 -1.98 0 -3 0 C-3 0.66 -3 1.32 -3 2 C-7.40914783 3.10228696 -11.48382401 3.07654536 -16 3 C-13.63496183 0.63496183 -12.35963958 0.45078941 -9.125 -0.1875 C-8.26132812 -0.36667969 -7.39765625 -0.54585938 -6.5078125 -0.73046875 C-4.00753003 -0.9991907 -2.36944548 -0.7769577 0 0 Z " fill="#4D4A4B" transform="translate(607,115)"/>
<path d="M0 0 C1.44096586 0.42594588 2.87768712 0.86626633 4.3125 1.3125 C5.11300781 1.55613281 5.91351563 1.79976562 6.73828125 2.05078125 C9.09964573 3.04182023 10.33879993 4.08074943 12 6 C10.02 6 8.04 6 6 6 C6 5.34 6 4.68 6 4 C5.01 4 4.02 4 3 4 C3 3.34 3 2.68 3 2 C2.01 2 1.02 2 0 2 C0 1.34 0 0.68 0 0 Z " fill="#FAE4BF" transform="translate(418,521)"/>
<path d="M0 0 C2.0625 0.4375 2.0625 0.4375 4 1 C3.360625 1.268125 2.72125 1.53625 2.0625 1.8125 C-0.33131686 2.88667752 -0.33131686 2.88667752 -1 6 C-2.65 6 -4.3 6 -6 6 C-4 4 -2 2 0 0 Z " fill="#2F2D2E" transform="translate(534,283)"/>
<path d="M0 0 C0.33 0 0.66 0 1 0 C1 1.65 1 3.3 1 5 C0.34 5 -0.32 5 -1 5 C-1.66 6.32 -2.32 7.64 -3 9 C-3.66 9 -4.32 9 -5 9 C-3.75471468 5.55151758 -2.38532951 2.80016942 0 0 Z " fill="#2E2D2D" transform="translate(515,303)"/>
<path d="M0 0 C2.56616632 3.84924948 2.55097676 6.4349304 3 11 C2.67 10.34 2.34 9.68 2 9 C1.34 9 0.68 9 0 9 C-0.87890625 2.84765625 -0.87890625 2.84765625 -1 1 C-0.67 0.67 -0.34 0.34 0 0 Z " fill="#4A4848" transform="translate(766,175)"/>
<path d="M0 0 C4.455 0.99 4.455 0.99 9 2 C8.67 2.99 8.34 3.98 8 5 C6.35 4.67 4.7 4.34 3 4 C3 3.34 3 2.68 3 2 C2.01 2 1.02 2 0 2 C0 1.34 0 0.68 0 0 Z " fill="#FBE7C3" transform="translate(470,547)"/>
<path d="M0 0 C2.64 0 5.28 0 8 0 C8 0.66 8 1.32 8 2 C9.65 2.33 11.3 2.66 13 3 C9.57056481 4.18771723 7.62215325 3.80226223 4.25 2.5625 C3.45078125 2.27503906 2.6515625 1.98757813 1.828125 1.69140625 C1.22484375 1.46324219 0.6215625 1.23507812 0 1 C0 0.67 0 0.34 0 0 Z " fill="#EFB65D" transform="translate(508,560)"/>
<path d="M0 0 C3.63 0.66 7.26 1.32 11 2 C7 4 7 4 4.9375 3.6875 C4.298125 3.460625 3.65875 3.23375 3 3 C2.01 2.67 1.02 2.34 0 2 C0 1.34 0 0.68 0 0 Z " fill="#EEAE3B" transform="translate(477,515)"/>
<path d="M0 0 C0.66 0 1.32 0 2 0 C1.44894091 3.9492568 0.61064629 7.34920174 -1 11 C-1.33 11 -1.66 11 -2 11 C-2.19622241 6.78121808 -1.80230168 3.82989106 0 0 Z " fill="#EDA537" transform="translate(915,502)"/>
<path d="M0 0 C0.66 0 1.32 0 2 0 C1.67 3.96 1.34 7.92 1 12 C0.67 12 0.34 12 0 12 C-0.19477739 10.37585622 -0.38059458 8.75063577 -0.5625 7.125 C-0.66691406 6.22007812 -0.77132813 5.31515625 -0.87890625 4.3828125 C-1 2 -1 2 0 0 Z " fill="#464445" transform="translate(497,386)"/>
<path d="M0 0 C-0.33 0.33 -0.66 0.66 -1 1 C-0.01 1.66 0.98 2.32 2 3 C-0.64 3 -3.28 3 -6 3 C-6 2.01 -6 1.02 -6 0 C-3.50907189 -1.24546405 -2.58919267 -0.7767578 0 0 Z " fill="#292627" transform="translate(566,221)"/>
<path d="M0 0 C0.99 0.66 1.98 1.32 3 2 C0.02819057 3.89865603 -2.51460083 5.35455571 -6 6 C-2.25 1.125 -2.25 1.125 0 0 Z " fill="#DAD8D9" transform="translate(757,452)"/>
<path d="M0 0 C0.66 0.33 1.32 0.66 2 1 C0.68 2.32 -0.64 3.64 -2 5 C-2.99 4.67 -3.98 4.34 -5 4 C-5.33 4.66 -5.66 5.32 -6 6 C-6.99 5.34 -7.98 4.68 -9 4 C-7.54618103 3.30300448 -6.08677047 2.61766134 -4.625 1.9375 C-3.40683594 1.36322266 -3.40683594 1.36322266 -2.1640625 0.77734375 C-1.44992187 0.52082031 -0.73578125 0.26429688 0 0 Z " fill="#3B393A" transform="translate(647,397)"/>
<path d="M0 0 C2.64 0 5.28 0 8 0 C4.99382731 3.00617269 2.17618402 2.59585316 -2 3 C-1.34 2.67 -0.68 2.34 0 2 C0 1.34 0 0.68 0 0 Z " fill="#F9EABA" transform="translate(764,523)"/>
<path d="M0 0 C0.66 0 1.32 0 2 0 C2.33 2.97 2.66 5.94 3 9 C2.01 9 1.02 9 0 9 C0 6.03 0 3.06 0 0 Z " fill="#1B1919" transform="translate(796,407)"/>
<path d="M0 0 C0 0.33 0 0.66 0 1 C-3.96 1.66 -7.92 2.32 -12 3 C-7.72115334 -1.27884666 -5.68536807 -1.13707361 0 0 Z " fill="#DFDFDF" transform="translate(612,253)"/>
<path d="M0 0 C-0.33 0.99 -0.66 1.98 -1 3 C-4.63 3.33 -8.26 3.66 -12 4 C-8.36043372 1.57362248 -4.44144233 0 0 0 Z " fill="#FCE5BB" transform="translate(758,562)"/>
<path d="M0 0 C1.67542976 0.28604898 3.34385343 0.61781233 5 1 C2.44008376 3.01136276 -0.04590299 4.62845496 -3 6 C-1.125 1.125 -1.125 1.125 0 0 Z " fill="#F2A42E" transform="translate(843,522)"/>
<path d="M0 0 C2.31 0 4.62 0 7 0 C7 0.66 7 1.32 7 2 C7.66 2.33 8.32 2.66 9 3 C2.84765625 2.4140625 2.84765625 2.4140625 1 2 C0.67 1.34 0.34 0.68 0 0 Z " fill="#FDE6BE" transform="translate(488,517)"/>
<path d="M0 0 C-1.32 0.33 -2.64 0.66 -4 1 C-4 1.66 -4 2.32 -4 3 C-6.31 3.33 -8.62 3.66 -11 4 C-7.26280719 0.48264206 -5.13496308 -0.47767098 0 0 Z " fill="#F4DB9F" transform="translate(828,507)"/>
<path d="M0 0 C0.598125 0.350625 1.19625 0.70125 1.8125 1.0625 C1.4825 2.0525 1.1525 3.0425 0.8125 4.0625 C-4.0625 2.3125 -4.0625 2.3125 -5.1875 0.0625 C-2.1875 -0.9375 -2.1875 -0.9375 0 0 Z " fill="#312F2F" transform="translate(537.1875,448.9375)"/>
<path d="M0 0 C1.32 0.33 2.64 0.66 4 1 C4.33 3.31 4.66 5.62 5 8 C4.34 6.68 3.68 5.36 3 4 C2.34 4 1.68 4 1 4 C0.67 2.68 0.34 1.36 0 0 Z " fill="#3F3E3E" transform="translate(506,420)"/>
</svg>
